# Alias OBJ Model File
# Exported from SketchUp, (c) 2000-2012 Trimble Navigation Limited
# File units = meters

mtllib wall_b.mtl

g Mesh1 wall_b1 Model

usemtl FrontColor
v 1.4 0.15 -1.25
vt -5.90551 0
vn 1 0 3.82857e-16
v 1.4 0.15 -1.4
vt -1.7053e-13 0
v 1.4 2.65 -1.4
vt -1.7053e-13 98.4252
v 1.4 2.65 -1.25
vt -5.90551 98.4252
f 1/1/1 2/2/1 3/3/1 4/4/1 

v -1.4 0.15 -1.4
vt 0 0
vn 0 -1 0
vt -1.7053e-13 110.236
vt -5.90551 110.236
v -1.4 0.15 -1.25
vt -5.90551 -5.32907e-15
f 5/5/2 2/6/2 1/7/2 6/8/2 

vn 1.72691e-15 7.13812e-17 -1
v -0.75 1.05 -1.4
vt -25.5906 35.4331
vt -110.236 1.5966e-30
f 5/5/3 7/9/3 2/10/3

v -0.75 2.05 -1.4
vt -25.5906 74.8031
f 7/9/3 5/5/3 8/11/3

v -1.4 2.65 -1.4
vt 0 98.4252
f 9/12/3 8/11/3 5/5/3

vt -110.236 98.4252
f 8/11/3 9/12/3 3/13/3

vn 0 1 -0
v -1.4 2.65 -1.25
vt 5.90551 0
vt 5.90551 110.236
vt 1.7053e-13 110.236
f 9/5/4 10/14/4 4/15/4 3/16/4 

vn -1 0 -3.82857e-16
vt 5.90551 98.4252
f 6/14/5 10/17/5 9/12/5 5/5/5 

vt 1.89444e-15 2.86495e-16
vn -1.60604e-15 -4.85132e-17 1
v -0.75 1.05 -1.25
vt 25.5906 35.4331
vt 7.22351e-15 98.4252
f 6/18/6 11/19/6 10/20/6

vt 110.236 2.86495e-16
f 11/19/6 6/18/6 1/21/6

v 0.75 1.05 -1.25
vt 84.6457 35.4331
f 11/19/6 1/21/6 12/22/6

v 0.75 2.05 -1.25
vt 84.6457 74.8031
f 12/22/6 1/21/6 13/23/6

vt 110.236 98.4252
f 4/24/6 13/23/6 1/21/6

v -0.75 2.05 -1.25
vt 25.5906 74.8031
f 4/24/6 14/25/6 13/23/6

f 10/20/6 14/25/6 4/24/6

f 14/25/6 10/20/6 11/19/6

vt -5.90551 35.4331
vn 1 0 6.01593e-16
vt -7.96676e-14 35.4331
vt -7.96676e-14 74.8031
vt -5.90551 74.8031
f 11/26/7 7/27/7 8/28/7 14/29/7 

vt 5.90551 25.5906
vt 5.90551 84.6457
v 0.75 1.05 -1.4
vt 9.9476e-14 84.6457
vt 8.52651e-14 25.5906
f 11/30/4 12/31/4 15/32/4 7/33/4 

vt 5.90551 74.8031
vn -1 0 -0
v 0.75 2.05 -1.4
vt 1.31883e-13 74.8031
vt 1.31883e-13 35.4331
vt 5.90551 35.4331
f 13/34/8 16/35/8 15/36/8 12/37/8 

vt -5.90551 84.6457
vt -5.90551 25.5906
vt -8.52651e-14 25.5906
vt -9.9476e-14 84.6457
f 13/38/2 14/39/2 8/40/2 16/41/2 

vt -84.6457 74.8031
f 8/11/3 3/13/3 16/42/3

vt -84.6457 35.4331
f 16/42/3 3/13/3 15/43/3

f 2/10/3 15/43/3 3/13/3

f 2/10/3 7/9/3 15/43/3

