# Alias OBJ Model File
# Exported from SketchUp, (c) 2000-2012 Trimble Navigation Limited
# File units = meters

mtllib wall_c.mtl

g Mesh1 wall_c1 Model

usemtl FrontColor
v 1.4 0.15 -1.4
vt -5.90551 0
vn 0 0 -1
v 1.25 0.15 -1.4
vt -1.75859e-13 0
v 1.25 2.65 -1.4
vt -1.75859e-13 98.4252
v 1.4 2.65 -1.4
vt -5.90551 98.4252
f 1/1/1 2/2/1 3/3/1 4/4/1 

v 1.25 0.15 1.4
vt 0 0
vn 0 -1 -0
vt -1.75859e-13 110.236
vt -5.90551 110.236
v 1.4 0.15 1.4
f 5/5/2 2/6/2 1/7/2 6/1/2 

v 1.25 2.65 1.4
vt 0 98.4252
vn -1 0 -1.78673e-15
vt -110.236 98.4252
vt -110.236 0
f 7/8/3 3/9/3 2/10/3 5/5/3 

vn 0 1 -0
v 1.4 2.65 1.4
vt 5.90551 0
vt 5.90551 110.236
vt 1.75859e-13 110.236
f 7/5/4 8/11/4 4/12/4 3/13/4 

vn 0 0 1
vt 5.90551 98.4252
f 6/11/5 8/14/5 7/8/5 5/5/5 

vt 9.40547e-15 98.4252
vn 1 0 1.59266e-15
vt 9.40547e-15 0
vt 110.236 0
vt 110.236 98.4252
f 8/15/6 6/16/6 1/17/6 4/18/6 

