# Alias OBJ Model File
# Exported from SketchUp, (c) 2000-2012 Trimble Navigation Limited
# File units = meters

mtllib wall_d.mtl

g Mesh1 wall_d1 Model

usemtl FrontColor
v 1.4 0.15 1.4
vt -5.90551 0
vn 1 0 3.82857e-16
v 1.4 0.15 1.25
vt -1.7053e-13 0
v 1.4 2.65 1.25
vt -1.7053e-13 98.4252
v 1.4 2.65 1.4
vt -5.90551 98.4252
f 1/1/1 2/2/1 3/3/1 4/4/1 

vt -5.90551 110.236
vn 1.80478e-16 -1 -2.89531e-33
v 0.4 0.15 1.4
vt -5.90551 70.8661
v 0.4 0.15 1.25
vt -8.52651e-14 70.8661
vt -1.7053e-13 110.236
f 1/5/2 5/6/2 6/7/2 2/8/2 

vt 110.236 1.06581e-15
vn -1.7517e-15 -1.80478e-16 1
vt 110.236 98.4252
v -1.4 2.65 1.4
vt 8.0837e-15 98.4252
v -1.4 0.15 1.4
vt 9.78273e-16 1.06581e-15
v -0.4 0.15 1.4
vt 39.3701 -6.03961e-15
v -0.4 2.25 1.4
vt 39.3701 82.6772
v 0.4 2.25 1.4
vt 70.8661 82.6772
vt 70.8661 -6.03961e-15
f 1/9/3 4/10/3 7/11/3 8/12/3 9/13/3 10/14/3 11/15/3 5/16/3 

v -1.4 2.65 1.25
vt 0 0
vn 0 1 -0
vt 5.90551 0
vt 5.90551 110.236
vt 1.7053e-13 110.236
f 12/17/4 7/18/4 4/19/4 3/20/4 

vn -1 0 -3.82857e-16
vt 5.90551 98.4252
vt 0 98.4252
v -1.4 0.15 1.25
f 8/18/5 7/21/5 12/22/5 13/17/5 

vt -110.236 -8.20132e-46
vn 1.8218e-15 -6.88834e-32 -1
vt -70.8661 -7.10543e-15
v 0.4 2.25 1.25
vt -70.8661 82.6772
v -0.4 2.25 1.25
vt -39.3701 82.6772
v -0.4 0.15 1.25
vt -39.3701 -7.10543e-15
vt -110.236 98.4252
f 2/23/6 6/24/6 14/25/6 15/26/6 16/27/6 13/17/6 12/22/6 3/28/6 

vt 9.10804e-14 82.6772
vn -1 0 -3.00796e-16
vt 9.10804e-14 -7.10543e-15
vt 5.90551 -7.10543e-15
vt 5.90551 82.6772
f 14/29/7 6/30/7 5/31/7 11/32/7 

vt -8.52651e-14 39.3701
vn 0 -1 0
vt -5.90551 39.3701
f 15/33/8 14/7/8 11/6/8 10/34/8 

vt -8.84959e-14 -7.10543e-15
vn 1 0 3.00796e-16
vt -8.84959e-14 82.6772
vt -5.90551 82.6772
vt -5.90551 -7.10543e-15
f 16/35/9 15/36/9 10/37/9 9/38/9 

vn -1.80478e-16 -1 -1.12917e-31
f 16/33/10 9/34/10 8/38/10 13/17/10 

